<svg width="54" height="38" viewBox="0 0 54 38" fill="none" xmlns="http://www.w3.org/2000/svg">
<path d="M14.944 30.0853V34.9649H13.2669V30.0853C13.2502 29.4944 13.0036 28.9334 12.5798 28.5214C12.1559 28.1094 11.5881 27.8789 10.997 27.8789C10.4059 27.8789 9.83809 28.1094 9.41423 28.5214C8.99037 28.9334 8.74387 29.4944 8.7271 30.0853V34.9649H7.05002V30.0853C7.03326 29.4944 6.78676 28.9334 6.3629 28.5214C5.93903 28.1094 5.37122 27.8789 4.78012 27.8789C4.18901 27.8789 3.6212 28.1094 3.19734 28.5214C2.77348 28.9334 2.52698 29.4944 2.51021 30.0853V34.9649H0.834961V30.0853C0.835052 29.264 1.09137 28.4633 1.56819 27.7946C2.045 27.126 2.71857 26.6227 3.49498 26.3551C4.27139 26.0874 5.11196 26.0687 5.89953 26.3015C6.6871 26.5343 7.38242 27.007 7.88856 27.6537C8.39505 27.0073 9.09049 26.535 9.87805 26.3024C10.6656 26.0698 11.5061 26.0887 12.2824 26.3562C13.0588 26.6238 13.7324 27.1268 14.2095 27.7952C14.6865 28.4636 14.9433 29.2641 14.944 30.0853Z" fill="white"/>
<path d="M41.2967 26.4316H43.1638L39.4936 34.9614H37.2374L33.5671 26.4316H35.4342L38.3664 33.2404L41.2967 26.4316Z" fill="white"/>
<path d="M53.948 26.4316L50.3545 34.7531L49.4977 36.7353L48.9953 37.9027H47.1246L48.4637 34.8024L44.3276 26.4316H46.2422L49.357 32.7344L52.0773 26.4316H53.948Z" fill="white"/>
<path d="M25.6293 31.3804C25.45 32.4242 24.9075 33.371 24.0976 34.0535C23.2878 34.7361 22.2628 35.1104 21.2037 35.1104C20.1446 35.1104 19.1196 34.7361 18.3098 34.0535C17.4999 33.371 16.9574 32.4242 16.7781 31.3804H18.3602C18.5286 32.0057 18.8985 32.558 19.4125 32.9519C19.9266 33.3458 20.5561 33.5592 21.2037 33.5592C21.8513 33.5592 22.4808 33.3458 22.9949 32.9519C23.5089 32.558 23.8788 32.0057 24.0473 31.3804H25.6293Z" fill="white"/>
<path d="M33.0301 29.6816H31.4261C31.2293 29.098 30.8543 28.5909 30.354 28.2317C29.8537 27.8724 29.2533 27.6792 28.6374 27.6792C28.0215 27.6792 27.4211 27.8724 26.9208 28.2317C26.4205 28.5909 26.0455 29.098 25.8486 29.6816H24.2446C24.4599 28.6764 25.0134 27.7753 25.8129 27.1289C26.6123 26.4825 27.6093 26.1299 28.6374 26.1299C29.6655 26.1299 30.6624 26.4825 31.4619 27.1289C32.2613 27.7753 32.8149 28.6764 33.0301 29.6816Z" fill="white"/>
<path d="M25.5965 29.6817H23.9925C23.7957 29.0981 23.4207 28.5909 22.9204 28.2317C22.4201 27.8724 21.8197 27.6792 21.2038 27.6792C20.5879 27.6792 19.9875 27.8724 19.4872 28.2317C18.9869 28.5909 18.6119 29.0981 18.415 29.6817H16.811C16.9951 28.821 17.428 28.0333 18.0559 27.4165C18.6838 26.7997 19.479 26.3809 20.3429 26.2122C21.2067 26.0435 22.1011 26.1323 22.9149 26.4675C23.7287 26.8027 24.4262 27.3696 24.9206 28.0978C25.2471 28.5766 25.4767 29.1147 25.5965 29.6817Z" fill="#62C0C0"/>
<path d="M33.0629 31.3804C32.8836 32.4242 32.3411 33.371 31.5312 34.0535C30.7214 34.7361 29.6964 35.1104 28.6373 35.1104C27.5782 35.1104 26.5532 34.7361 25.7434 34.0535C24.9335 33.371 24.391 32.4242 24.2117 31.3804H25.7919C25.9604 32.0057 26.3303 32.558 26.8443 32.9519C27.3583 33.3458 27.9879 33.5592 28.6355 33.5592C29.2831 33.5592 29.9126 33.3458 30.4266 32.9519C30.9407 32.558 31.3106 32.0057 31.479 31.3804H33.0629Z" fill="#62C0C0"/>
<path d="M28.9815 12.1636C28.5794 14.5059 27.3621 16.6306 25.5448 18.1621C23.7274 19.6936 21.4272 20.5332 19.0506 20.5325C16.6743 20.5321 14.3746 19.6921 12.5575 18.1608C10.7404 16.6295 9.52278 14.5054 9.11963 12.1636H12.6711C13.0472 13.5681 13.8762 14.8093 15.0297 15.6946C16.1832 16.5798 17.5966 17.0597 19.0506 17.0597C20.5046 17.0597 21.918 16.5798 23.0715 15.6946C24.2249 14.8093 25.054 13.5681 25.4301 12.1636H28.9815Z" fill="white"/>
<path d="M45.5864 8.34876H41.9874C41.5458 7.03903 40.7043 5.90087 39.5816 5.09464C38.4589 4.28841 37.1116 3.85474 35.7294 3.85474C34.3472 3.85474 32.9999 4.28841 31.8772 5.09464C30.7545 5.90087 29.913 7.03903 29.4714 8.34876H25.8743C26.3575 6.09333 27.5996 4.07184 29.3933 2.6216C31.1869 1.17137 33.4237 0.380114 35.7303 0.379883C38.037 0.379776 40.274 1.1709 42.0677 2.6212C43.8615 4.07149 45.1034 6.09318 45.5864 8.34876Z" fill="white"/>
<path d="M28.9069 8.34919H25.3098C24.8681 7.03945 24.0267 5.90129 22.904 5.09506C21.7813 4.28883 20.434 3.85516 19.0518 3.85516C17.6696 3.85516 16.3222 4.28883 15.1996 5.09506C14.0769 5.90129 13.2354 7.03945 12.7938 8.34919H9.19482C9.60818 6.4181 10.5797 4.65099 11.9888 3.26734C13.3979 1.8837 15.1824 0.944488 17.1207 0.566365C19.059 0.188242 21.0656 0.387869 22.8914 1.14045C24.7173 1.89304 26.2817 3.16541 27.3906 4.79955C28.1223 5.87277 28.6374 7.07855 28.9069 8.34919Z" fill="#62C0C0"/>
<path d="M45.6612 12.1636C45.258 14.5052 44.0403 16.6291 42.2232 18.16C40.406 19.691 38.1064 20.5307 35.7303 20.5307C33.3542 20.5307 31.0545 19.691 29.2373 18.16C27.4202 16.6291 26.2025 14.5052 25.7993 12.1636H29.3508C29.7268 13.5681 30.5559 14.8093 31.7094 15.6946C32.8629 16.5798 34.2762 17.0597 35.7303 17.0597C37.1843 17.0597 38.5977 16.5798 39.7511 15.6946C40.9046 14.8093 41.7337 13.5681 42.1098 12.1636H45.6612Z" fill="#62C0C0"/>
</svg>
